<?xml version="1.0" encoding="UTF-8" standalone="no"?>
<svg width="150px" height="150px" viewBox="0 0 150 150" version="1.1" xmlns="http://www.w3.org/2000/svg" xmlns:xlink="http://www.w3.org/1999/xlink">
    <!-- Generator: Sketch 3.8.3 (29802) - http://www.bohemiancoding.com/sketch -->
    <title>Artboard 4</title>
    <desc>Created with Sketch.</desc>
    <defs></defs>
    <g id="Page-1" stroke="none" stroke-width="1" fill="none" fill-rule="evenodd">
        <g id="Artboard-4">
            <g id="Group" transform="translate(15.000000, 15.000000)">
                <circle id="Oval-1" fill="#773F9B" cx="60.5" cy="60.5" r="60.5"></circle>
                <path d="M69,37 L69,26 L38,26 L38,97 L86,97 L86,44 L72.5,44 L69,44 L69,41 L44,41 L44,37 L69,37 Z M86,40 L86,39.6785084 L73,26.0087398 L73,40 L86,40 Z M33,21 L73.9119206,21 L90,37.840929 L90,101 L33,101 L33,21 Z M44,70 L79,70 L79,74 L44,74 L44,70 Z M44,59 L79,59 L79,63 L44,63 L44,59 Z M44,81 L79,81 L79,85 L44,85 L44,81 Z M44,48 L79,48 L79,52 L44,52 L44,48 Z" id="Combined-Shape" fill="#FFFFFF"></path>
            </g>
        </g>
    </g>
</svg>