<?xml version="1.0" encoding="UTF-8" standalone="no"?>
<svg width="150px" height="150px" viewBox="0 0 150 150" version="1.1" xmlns="http://www.w3.org/2000/svg" xmlns:xlink="http://www.w3.org/1999/xlink">
    <!-- Generator: Sketch 3.8.3 (29802) - http://www.bohemiancoding.com/sketch -->
    <title>Artboard 4</title>
    <desc>Created with Sketch.</desc>
    <defs></defs>
    <g id="Page-1" stroke="none" stroke-width="1" fill="none" fill-rule="evenodd">
        <g id="Artboard-4" fill="#773F9B">
            <path d="M17,73.804125 L18.7226562,73.804125 C22.2851741,73.804125 24.0664062,71.9174251 24.0664062,68.1439687 C24.0664062,66.5502108 23.8906268,64.9096022 23.5390625,63.2220937 L22.8710938,60.1635 C22.425779,58.1478649 22.203125,56.1791346 22.203125,54.25725 C22.203125,51.1400469 23.3222544,48.6205409 25.5605469,46.6986562 C27.7988393,44.7767716 30.8749804,43.6986574 34.7890625,43.4642812 L34.7890625,48.6674062 L33.8046875,48.6674062 C32.2109295,48.6674062 30.886724,49.0834177 29.8320312,49.9154531 C28.7773385,50.7474885 28.25,51.7845875 28.25,53.0267812 C28.25,53.5892841 28.4023422,54.7025542 28.7070312,56.366625 L29.3046875,59.9525625 C29.5625013,61.4994452 29.6914062,63.3392706 29.6914062,65.4720937 C29.6914062,69.8549282 27.9687672,73.499423 24.5234375,76.4056875 C27.9687672,79.3353896 29.6914062,83.0033217 29.6914062,87.4095937 C29.6914062,89.5189793 29.5625013,91.347086 29.3046875,92.8939687 L28.7070312,96.4799062 C28.4023422,98.1439771 28.25,99.2689658 28.25,99.8549062 C28.25,101.073662 28.7831978,102.099043 29.8496094,102.931078 C30.916021,103.763114 32.2343671,104.179125 33.8046875,104.179125 L34.7890625,104.179125 L34.7890625,109.38225 C30.8515428,109.147874 27.7695424,108.0639 25.5429688,106.130297 C23.3163951,104.196693 22.203125,101.671328 22.203125,98.554125 C22.203125,96.6322404 22.425779,94.6752287 22.8710938,92.6830312 L23.5390625,89.6244375 C23.8906268,87.9369291 24.0664062,86.2728832 24.0664062,84.63225 C24.0664062,80.8822313 22.2851741,79.00725 18.7226562,79.00725 L17,79.00725 L17,73.804125 Z M64.5470689,90.336 C64.5950691,90.8160024 64.6190689,91.1039995 64.6190689,91.2 L64.6190689,92.064 C64.6190689,92.7360034 64.5350697,93.7919928 64.3670689,95.232 C64.1990681,96.6720072 64.1150689,97.7759962 64.1150689,98.544 C64.1630691,100.368009 64.1870689,101.064002 64.1870689,100.632 C64.1870689,101.880006 63.8990718,102.887996 63.3230689,103.656 C62.6030653,104.616005 61.835073,105.287998 61.0190689,105.672 C60.2030648,106.056002 59.1710751,106.535997 57.9230689,107.112 C56.8670636,107.736003 55.5470768,108.479996 53.9630689,109.344 C52.5710619,110.112004 51.2750749,110.496 50.0750689,110.496 C47.3870555,110.496 45.4430749,108.624019 44.2430689,104.88 C43.3310643,102.047986 42.8030696,100.368003 42.6590689,99.84 C42.083066,97.8719902 41.7230696,96.1200077 41.5790689,94.584 C41.2910675,91.6559854 41.1470689,90.192 41.1470689,90.192 C41.1470689,88.799993 41.5430649,87.504006 42.3350689,86.304 C43.1270729,85.103994 44.8430557,84.0720043 47.4830689,83.208 C47.6270696,83.1119995 47.7710682,83.0879998 47.9150689,83.136 C48.0590696,83.1840002 48.2270679,83.2799993 48.4190689,83.424 C48.2270679,83.1839988 48.0590696,82.9200014 47.9150689,82.632 C47.7710682,81.7199954 47.9150667,80.8800038 48.3470689,80.112 C45.5150547,78.4799918 44.0030699,76.8480082 43.8110689,75.216 C43.7150684,74.4479962 43.6670689,73.8720019 43.6670689,73.488 C43.6670689,71.3759894 45.1310543,68.8560146 48.0590689,65.928 C48.7790725,65.1599962 49.9070612,64.0080077 51.4430689,62.472 C52.5950747,61.4159947 53.963061,60.792001 55.5470689,60.6 C56.5550739,60.5039995 57.5150643,61.0319942 58.4270689,62.184 L58.5710689,61.536 C58.0430663,60.5759952 57.6830699,59.8800022 57.4910689,59.448 C57.2030675,58.7759966 57.0350691,58.0080043 56.9870689,57.144 C56.9390687,56.9039988 56.9150689,56.5920019 56.9150689,56.208 L56.9150689,55.704 C56.9150689,54.8399957 57.2510655,52.9200149 57.9230689,49.944 L61.5950689,50.376 C62.7470747,50.6640014 63.3230689,51.2639954 63.3230689,52.176 C63.4190694,52.7520029 63.3710699,53.5199952 63.1790689,54.48 C62.9870679,55.6320058 62.8910689,56.3999981 62.8910689,56.784 C62.9390691,57.2160022 63.1070675,57.6479978 63.3950689,58.08 C64.0670723,59.088005 64.4270687,59.7599983 64.4750689,60.096 C64.4750689,60.9600043 64.4030696,61.7519964 64.2590689,62.472 C63.8270667,64.6320108 63.6110689,65.8319988 63.6110689,66.072 C63.6590691,66.4560019 63.6950688,66.7799987 63.7190689,67.044 C63.743069,67.3080013 63.7550689,67.7039974 63.7550689,68.232 C63.7550689,69.0000038 63.4190723,70.3919899 62.7470689,72.408 L62.3150689,74.712 C61.9790672,75.7680053 61.1630754,76.6319966 59.8670689,77.304 C59.3870665,77.5920014 58.235078,78.0599968 56.4110689,78.708 C54.5870598,79.3560032 53.3870718,80.2319945 52.8110689,81.336 C53.627073,81.7200019 55.1630576,82.007999 57.4190689,82.2 C59.3870787,82.4400012 60.8750639,82.8959966 61.8830689,83.568 C62.8910739,84.2400034 63.587067,85.1999938 63.9710689,86.448 C64.1630699,87.0240029 64.3550679,88.3199899 64.5470689,90.336 L64.5470689,90.336 Z M58.3550689,70.536 C58.2590684,69.8159964 57.9230718,69.2280023 57.3470689,68.772 C56.771066,68.3159977 56.1230725,68.1359995 55.4030689,68.232 C51.227048,68.7120024 49.1390689,70.3439861 49.1390689,73.128 C49.1390689,73.7520031 49.4150661,74.2439982 49.9670689,74.604 C50.5190717,74.9640018 51.1070658,75.0960005 51.7310689,75 C56.3870922,74.3279966 58.5950701,72.8400115 58.3550689,70.536 L58.3550689,70.536 Z M60.5870689,91.776 C60.4430682,91.0559964 59.9150735,90.696 59.0030689,90.696 C59.0510691,90.696 57.8270814,90.8879981 55.3310689,91.272 C53.6030603,91.272 52.427072,91.3439993 51.8030689,91.488 C50.6510631,91.7280012 49.6430732,92.2799957 48.7790689,93.144 C47.4830624,94.4400065 46.8830684,96.4559863 46.9790689,99.192 C47.1230696,102.792018 47.8190627,104.520001 49.0670689,104.376 C50.2670749,104.376 52.4030535,103.680007 55.4750689,102.288 L57.9950689,101.712 C59.5310766,101.375998 60.2990689,100.632006 60.2990689,99.48 C60.2030684,98.7599964 60.1550689,98.1840022 60.1550689,97.752 C60.1550689,97.0799966 60.2270682,96.0840066 60.3710689,94.764 C60.5150696,93.4439934 60.5870689,92.4480034 60.5870689,91.776 L60.5870689,91.776 Z M81.9269815,39.792 L80.5589815,57.36 L76.5269815,56.136 C75.2309751,55.7999983 73.838989,55.632 72.3509815,55.632 L72.5669815,40.8 L81.9269815,39.792 Z M83.7989815,62.4 C82.886977,67.9680278 82.4309815,74.351964 82.4309815,81.552 L82.4309815,84.648 L82.1429815,90.336 C82.1429815,90.6720017 82.2149808,91.535993 82.3589815,92.928 C82.3589815,93.3600022 82.2389827,93.8399974 81.9989815,94.368 C81.4709789,95.568006 80.1989916,96.7439942 78.1829815,97.896 C76.6949741,98.7600043 75.5429856,99.5039969 74.7269815,100.128 C74.7269815,96.2399806 74.6549823,92.592017 74.5109815,89.184 C74.1269796,80.0639544 73.9349815,74.6640084 73.9349815,72.984 C73.9349815,72.4559974 73.8509824,71.688005 73.6829815,70.68 C73.5149807,69.671995 73.4309815,68.9040026 73.4309815,68.376 C73.4789818,68.0879986 73.5029815,67.848001 73.5029815,67.656 C73.5029815,67.3199983 73.4309823,66.6960046 73.2869815,65.784 C73.2869815,64.8239952 73.7669767,64.2000014 74.7269815,63.912 C75.3029844,63.7679993 75.8789787,63.600001 76.4549815,63.408 L78.9749815,62.184 C79.7429854,61.7999981 80.582977,61.3200029 81.4949815,60.744 L83.6549815,60.456 L83.7989815,62.4 Z M106.938894,65.496 L97.1468942,67.656 L98.8028942,97.968 L93.3308942,98.4 L95.0588942,68.232 C93.426886,68.6160019 90.930911,69.1199969 87.5708942,69.744 L87.4988942,53.256 C88.3628985,53.4960012 89.2508896,53.616 90.1628942,53.616 C90.7868973,53.616 91.6508887,53.4840013 92.7548942,53.22 C93.8588997,52.9559987 94.6508918,52.8000002 95.1308942,52.752 L95.0588942,39.432 L97.0748942,39 L97.0748942,52.176 C97.9868988,52.176 99.366885,52.0320014 101.214894,51.744 C103.062903,51.4559986 104.466889,51.312 105.426894,51.312 L106.938894,65.496 Z M131.913119,73.804125 L130.190463,73.804125 C126.627945,73.804125 124.846713,71.9174251 124.846713,68.1439687 C124.846713,66.5502108 125.022493,64.9096022 125.374057,63.2220937 L126.042026,60.1635 C126.48734,58.1478649 126.709994,56.1791346 126.709994,54.25725 C126.709994,51.1400469 125.590865,48.6205409 123.352572,46.6986562 C121.11428,44.7767716 118.038139,43.6986574 114.124057,43.4642812 L114.124057,48.6674062 L115.108432,48.6674062 C116.70219,48.6674062 118.026395,49.0834177 119.081088,49.9154531 C120.135781,50.7474885 120.663119,51.7845875 120.663119,53.0267812 C120.663119,53.5892841 120.510777,54.7025542 120.206088,56.366625 L119.608432,59.9525625 C119.350618,61.4994452 119.221713,63.3392706 119.221713,65.4720937 C119.221713,69.8549282 120.944352,73.499423 124.389682,76.4056875 C120.944352,79.3353896 119.221713,83.0033217 119.221713,87.4095937 C119.221713,89.5189793 119.350618,91.347086 119.608432,92.8939687 L120.206088,96.4799062 C120.510777,98.1439771 120.663119,99.2689658 120.663119,99.8549062 C120.663119,101.073662 120.129922,102.099043 119.06351,102.931078 C117.997098,103.763114 116.678752,104.179125 115.108432,104.179125 L114.124057,104.179125 L114.124057,109.38225 C118.061577,109.147874 121.143577,108.0639 123.370151,106.130297 C125.596724,104.196693 126.709994,101.671328 126.709994,98.554125 C126.709994,96.6322404 126.48734,94.6752287 126.042026,92.6830312 L125.374057,89.6244375 C125.022493,87.9369291 124.846713,86.2728832 124.846713,84.63225 C124.846713,80.8822313 126.627945,79.00725 130.190463,79.00725 L131.913119,79.00725 L131.913119,73.804125 Z" id="{git}"></path>
        </g>
    </g>
</svg>