<?xml version="1.0" encoding="UTF-8" standalone="no"?>
<svg width="179px" height="179px" viewBox="0 0 179 179" version="1.1" xmlns="http://www.w3.org/2000/svg" xmlns:xlink="http://www.w3.org/1999/xlink">
    <!-- Generator: Sketch 3.8.3 (29802) - http://www.bohemiancoding.com/sketch -->
    <title>Group</title>
    <desc>Created with Sketch.</desc>
    <defs></defs>
    <g id="Page-1" stroke="none" stroke-width="1" fill="none" fill-rule="evenodd">
        <g id="Artboard-3">
            <g id="Group" transform="translate(0.000000, -13.000000)">
                <polygon id="Triangle-3" fill="#773F9B" points="179 13 179 192 0 13"></polygon>
                <path d="M11.5618328,104 L6.81329766,86.1044922 L9.24249688,86.1044922 L11.9646648,97.8354492 C12.2576351,99.0642965 12.5099112,100.284987 12.7215008,101.497559 C13.1772322,99.5851141 13.4457842,98.4824233 13.5271648,98.1894531 L16.9329266,86.1044922 L19.7893719,86.1044922 L22.3528484,95.1621094 C22.9957553,97.4082144 23.4596178,99.5200096 23.74445,101.497559 C23.9723157,100.366368 24.2693505,99.0683667 24.6355633,97.6035156 L27.4431805,86.1044922 L29.8235516,86.1044922 L24.916325,104 L22.6336102,104 L18.8616375,90.3647461 C18.5442531,89.2254175 18.3570805,88.5255547 18.3001141,88.2651367 C18.1129387,89.0870809 17.937973,89.7869437 17.7752117,90.3647461 L13.978825,104 L11.5618328,104 Z M40.8848059,99.8251953 L43.1553137,100.105957 C42.797239,101.432461 42.1339969,102.46191 41.1655676,103.194336 C40.1971383,103.926761 38.9601715,104.292969 37.4546301,104.292969 C35.5584618,104.292969 34.0549775,103.709072 32.9441321,102.54126 C31.8332867,101.373448 31.2778723,99.7356876 31.2778723,97.6279297 C31.2778723,95.4469292 31.8393901,93.7542378 32.9624426,92.5498047 C34.0854951,91.3453716 35.5421863,90.7431641 37.3325598,90.7431641 C39.0659669,90.7431641 40.4819684,91.3331647 41.5806067,92.5131836 C42.679245,93.6932025 43.2285559,95.3533422 43.2285559,97.4936523 C43.2285559,97.6238613 43.2244869,97.8191719 43.2163489,98.0795898 L33.5483801,98.0795898 C33.6297607,99.5037506 34.0325887,100.594234 34.7568762,101.351074 C35.4811637,102.107914 36.384475,102.486328 37.4668371,102.486328 C38.2725052,102.486328 38.9601611,102.274742 39.5298254,101.851562 C40.0994897,101.428383 40.5511454,100.752934 40.8848059,99.8251953 L40.8848059,99.8251953 Z M33.6704504,96.2729492 L40.90922,96.2729492 C40.8115632,95.182449 40.5348733,94.3645861 40.0791418,93.8193359 C39.3792685,92.9729775 38.4718883,92.5498047 37.3569739,92.5498047 C36.3478542,92.5498047 35.499474,92.8875292 34.8118078,93.5629883 C34.1241416,94.2384474 33.743693,95.1417587 33.6704504,96.2729492 L33.6704504,96.2729492 Z M46.4895172,88.4726562 L46.4895172,85.9213867 L48.8454743,85.9213867 L48.8454743,87.9355469 C48.8454743,89.0260471 48.7193362,89.8113583 48.4670563,90.2915039 C48.1171197,90.9506869 47.5718777,91.4471012 46.8313141,91.7807617 L46.2942047,90.9140625 C46.7336601,90.7350251 47.0612121,90.4522318 47.2768708,90.0656738 C47.4925294,89.6791159 47.612564,89.1481154 47.6369782,88.4726562 L46.4895172,88.4726562 Z M52.8632716,104 L52.8632716,91.0361328 L54.8408106,91.0361328 L54.8408106,93.0014648 C55.3453704,92.0818639 55.8112675,91.4755874 56.2385157,91.1826172 C56.6657639,90.889647 57.1357299,90.7431641 57.6484278,90.7431641 C58.3889914,90.7431641 59.1417508,90.9791643 59.9067286,91.4511719 L59.1498927,93.4897461 C58.6127806,93.1723617 58.0756766,93.0136719 57.5385645,93.0136719 C57.0584189,93.0136719 56.6271081,93.1581203 56.2446192,93.4470215 C55.8621303,93.7359227 55.5895094,94.1367162 55.4267481,94.6494141 C55.1826063,95.430668 55.0605372,96.2851516 55.0605372,97.2128906 L55.0605372,104 L52.8632716,104 Z M70.7970845,99.8251953 L73.0675923,100.105957 C72.7095176,101.432461 72.0462755,102.46191 71.0778462,103.194336 C70.1094169,103.926761 68.8724501,104.292969 67.3669087,104.292969 C65.4707404,104.292969 63.9672561,103.709072 62.8564107,102.54126 C61.7455653,101.373448 61.1901509,99.7356876 61.1901509,97.6279297 C61.1901509,95.4469292 61.7516687,93.7542378 62.8747212,92.5498047 C63.9977737,91.3453716 65.4544649,90.7431641 67.2448384,90.7431641 C68.9782455,90.7431641 70.394247,91.3331647 71.4928853,92.5131836 C72.5915236,93.6932025 73.1408345,95.3533422 73.1408345,97.4936523 C73.1408345,97.6238613 73.1367655,97.8191719 73.1286274,98.0795898 L63.4606587,98.0795898 C63.5420393,99.5037506 63.9448673,100.594234 64.6691548,101.351074 C65.3934423,102.107914 66.2967535,102.486328 67.3791157,102.486328 C68.1847838,102.486328 68.8724397,102.274742 69.442104,101.851562 C70.0117683,101.428383 70.463424,100.752934 70.7970845,99.8251953 L70.7970845,99.8251953 Z M63.582729,96.2729492 L70.8214985,96.2729492 C70.7238418,95.182449 70.4471519,94.3645861 69.9914204,93.8193359 C69.2915471,92.9729775 68.3841669,92.5498047 67.2692524,92.5498047 C66.2601328,92.5498047 65.4117526,92.8875292 64.7240864,93.5629883 C64.0364202,94.2384474 63.6559716,95.1417587 63.582729,96.2729492 L63.582729,96.2729492 Z M83.3736947,97.5180664 C83.3736947,95.1173383 84.0410057,93.3391985 85.3756478,92.1835938 C86.4905622,91.2233025 87.8495981,90.7431641 89.4527963,90.7431641 C91.2350317,90.7431641 92.6917229,91.3270612 93.8229134,92.494873 C94.954104,93.6626849 95.5196908,95.2760314 95.5196908,97.3349609 C95.5196908,99.0032635 95.2694491,100.315506 94.7689584,101.271729 C94.2684676,102.227951 93.540122,102.970538 92.5838998,103.499512 C91.6276775,104.028486 90.5839868,104.292969 89.4527963,104.292969 C87.6380085,104.292969 86.1711449,103.711106 85.0521615,102.547363 C83.933178,101.38362 83.3736947,99.707205 83.3736947,97.5180664 L83.3736947,97.5180664 Z M85.6319955,97.5180664 C85.6319955,99.178231 85.9941338,100.421301 86.7184213,101.247314 C87.4427087,102.073328 88.3541579,102.486328 89.4527963,102.486328 C90.5432965,102.486328 91.4506767,102.071293 92.1749642,101.241211 C92.8992517,100.411129 93.26139,99.1456791 93.26139,97.4448242 C93.26139,95.8416261 92.8972172,94.6270386 92.1688607,93.8010254 C91.4405042,92.9750121 90.5351584,92.5620117 89.4527963,92.5620117 C88.3541579,92.5620117 87.4427087,92.9729777 86.7184213,93.7949219 C85.9941338,94.6168661 85.6319955,95.8579019 85.6319955,97.5180664 L85.6319955,97.5180664 Z M98.8050662,104 L98.8050662,91.0361328 L100.782605,91.0361328 L100.782605,92.8793945 C101.734758,91.4552338 103.11007,90.7431641 104.908582,90.7431641 C105.689836,90.7431641 106.408009,90.8835435 107.063123,91.1643066 C107.718237,91.4450698 108.208548,91.8133115 108.53407,92.269043 C108.859593,92.7247744 109.087455,93.2659474 109.217664,93.8925781 C109.299044,94.2994812 109.339734,95.0115509 109.339734,96.0288086 L109.339734,104 L107.142469,104 L107.142469,96.1142578 C107.142469,95.219071 107.05702,94.5497255 106.886121,94.1062012 C106.715222,93.6626768 106.412083,93.3086765 105.976697,93.0441895 C105.541311,92.7797025 105.030655,92.6474609 104.444715,92.6474609 C103.508838,92.6474609 102.701147,92.9444957 102.021619,93.5385742 C101.342091,94.1326527 101.002332,95.2597573 101.002332,96.9199219 L101.002332,104 L98.8050662,104 Z M129.728844,96.980957 L129.728844,94.8813477 L137.309411,94.8691406 L137.309411,101.509766 C136.145668,102.437505 134.945322,103.135333 133.708337,103.603271 C132.471351,104.07121 131.201833,104.305176 129.899743,104.305176 C128.141922,104.305176 126.544851,103.928796 125.108483,103.176025 C123.672115,102.423255 122.587735,101.334805 121.855309,99.9106445 C121.122884,98.4864838 120.756676,96.8955166 120.756676,95.1376953 C120.756676,93.3961501 121.120849,91.7705967 121.849206,90.2609863 C122.577562,88.7513759 123.625322,87.6303748 124.992516,86.8979492 C126.359711,86.1655237 127.934402,85.7993164 129.716637,85.7993164 C131.010589,85.7993164 132.180418,86.0088683 133.226159,86.4279785 C134.2719,86.8470887 135.091797,87.4309858 135.685876,88.1796875 C136.279954,88.9283892 136.73161,89.9049419 137.040856,91.109375 L134.904626,91.6953125 C134.63607,90.7838496 134.302414,90.0677109 133.903649,89.546875 C133.504884,89.0260391 132.935228,88.6089697 132.194665,88.2956543 C131.454101,87.9823389 130.632169,87.8256836 129.728844,87.8256836 C128.646482,87.8256836 127.710619,87.9904769 126.921227,88.3200684 C126.131835,88.6496599 125.495041,89.0830051 125.010827,89.6201172 C124.526612,90.1572292 124.150232,90.7472299 123.881676,91.3901367 C123.425945,92.4969131 123.198083,93.6972592 123.198083,94.9912109 C123.198083,96.586271 123.472738,97.9208931 124.022057,98.9951172 C124.571376,100.069341 125.370929,100.866859 126.420739,101.387695 C127.470549,101.908531 128.585447,102.168945 129.765465,102.168945 C130.790861,102.168945 131.791828,101.9716 132.768395,101.576904 C133.744963,101.182208 134.485515,100.76107 134.990075,100.313477 L134.990075,96.980957 L129.728844,96.980957 Z M141.241759,88.6313477 L141.241759,86.1044922 L143.439024,86.1044922 L143.439024,88.6313477 L141.241759,88.6313477 Z M141.241759,104 L141.241759,91.0361328 L143.439024,91.0361328 L143.439024,104 L141.241759,104 Z M152.290806,102.034668 L152.608189,103.975586 C151.989696,104.105795 151.436316,104.170898 150.948033,104.170898 C150.150503,104.170898 149.532019,104.04476 149.092564,103.79248 C148.653109,103.540201 148.343867,103.20858 148.16483,102.797607 C147.985792,102.386635 147.896275,101.521979 147.896275,100.203613 L147.896275,92.7451172 L146.284947,92.7451172 L146.284947,91.0361328 L147.896275,91.0361328 L147.896275,87.8256836 L150.081333,86.5073242 L150.081333,91.0361328 L152.290806,91.0361328 L152.290806,92.7451172 L150.081333,92.7451172 L150.081333,100.325684 C150.081333,100.952314 150.119989,101.355142 150.1973,101.53418 C150.274612,101.713217 150.40075,101.855631 150.575718,101.961426 C150.750687,102.067221 151.000928,102.120117 151.326451,102.120117 C151.570593,102.120117 151.892041,102.091634 152.290806,102.034668 L152.290806,102.034668 Z M155.502939,104 L155.502939,86.1044922 L157.871103,86.1044922 L157.871103,93.453125 L167.172861,93.453125 L167.172861,86.1044922 L169.541025,86.1044922 L169.541025,104 L167.172861,104 L167.172861,95.5649414 L157.871103,95.5649414 L157.871103,104 L155.502939,104 Z M182.40892,104 L182.40892,102.095703 C181.399801,103.560554 180.028558,104.292969 178.295151,104.292969 C177.530173,104.292969 176.816069,104.146486 176.152817,103.853516 C175.489565,103.560545 174.997219,103.192304 174.675766,102.748779 C174.354313,102.305255 174.128485,101.762047 173.998276,101.119141 C173.908757,100.687823 173.863998,100.004236 173.863998,99.0683594 L173.863998,91.0361328 L176.061264,91.0361328 L176.061264,98.2260742 C176.061264,99.3735409 176.106023,100.146645 176.195541,100.54541 C176.333888,101.123213 176.626854,101.576903 177.074448,101.906494 C177.522041,102.236086 178.075421,102.400879 178.734604,102.400879 C179.393787,102.400879 180.01227,102.232017 180.590073,101.894287 C181.167875,101.556558 181.576806,101.096764 181.816879,100.514893 C182.056952,99.9330212 182.176987,99.08871 182.176987,97.9819336 L182.176987,91.0361328 L184.374252,91.0361328 L184.374252,104 L182.40892,104 Z M190.552694,104 L188.51412,104 L188.51412,86.1044922 L190.711386,86.1044922 L190.711386,92.4887695 C191.639125,91.3250267 192.823195,90.7431641 194.263632,90.7431641 C195.061162,90.7431641 195.815956,90.9038884 196.528036,91.2253418 C197.240116,91.5467952 197.826048,91.9984509 198.285848,92.5803223 C198.745649,93.1621937 199.105753,93.8640909 199.366171,94.6860352 C199.626589,95.5079794 199.756796,96.3868768 199.756796,97.3227539 C199.756796,99.5444447 199.207485,101.26155 198.108846,102.474121 C197.010208,103.686692 195.691862,104.292969 194.153768,104.292969 C192.623813,104.292969 191.423467,103.654141 190.552694,102.376465 L190.552694,104 Z M190.52828,97.4204102 C190.52828,98.9747799 190.739866,100.097816 191.163046,100.789551 C191.854781,101.920741 192.790644,102.486328 193.970663,102.486328 C194.930954,102.486328 195.761024,102.069259 196.460897,101.235107 C197.160771,100.400956 197.510702,99.1578859 197.510702,97.5058594 C197.510702,95.8131426 197.175012,94.5639689 196.503622,93.7583008 C195.832232,92.9526327 195.020472,92.5498047 194.068319,92.5498047 C193.108028,92.5498047 192.277958,92.9668741 191.578085,93.8010254 C190.878211,94.6351767 190.52828,95.8416262 190.52828,97.4204102 L190.52828,97.4204102 Z" id="We’re-on-GitHub" fill="#FFFFFF" transform="translate(103.797742, 95.052246) rotate(45.000000) translate(-103.797742, -95.052246) "></path>
                <g id="25231" transform="translate(107.000000, 0.000000)" fill="#FFFFFF">
                    <path d="M77.0708184,20.6931985 C73.4209455,14.439571 68.470126,9.48856532 62.2170569,5.83906474 C55.9630571,2.18937801 49.1355537,0.365 41.729707,0.365 C34.324791,0.365 27.4950539,2.18993644 21.242357,5.83906474 C14.9887295,9.48837918 10.0380961,14.439571 6.38822326,20.6931985 C2.73890881,26.9466399 0.914158519,33.7754463 0.914158519,41.1794316 C0.914158519,50.0732977 3.50897838,58.0708899 8.69992109,65.1742558 C13.8903054,72.2781801 20.5955135,77.1938188 28.814987,79.9217302 C29.771757,80.0993097 30.4800274,79.9744084 30.9405428,79.5501907 C31.4012443,79.1254146 31.6313159,78.5934207 31.6313159,77.9564426 C31.6313159,77.8501555 31.6221949,76.8939439 31.6045114,75.086691 C31.5862695,73.2794381 31.577707,71.7028151 31.577707,70.3575667 L30.3553123,70.569024 C29.5759356,70.7117949 28.5927334,70.7722911 27.4057057,70.755166 C26.2192364,70.7385994 24.9875346,70.6142565 23.7122756,70.3830681 C22.4364581,70.1539273 21.2498027,69.6224918 20.1513786,68.7898785 C19.0535129,67.9572652 18.2741363,66.8674036 17.8134347,65.5219691 L17.2819993,64.299016 C16.927771,63.4848307 16.3700895,62.5803666 15.6082101,61.5889742 C14.8463308,60.596651 14.075889,59.9239337 13.2965123,59.5697055 L12.9244144,59.3033362 C12.6764732,59.1263152 12.4464017,58.9128103 12.2336413,58.6650552 C12.0210671,58.4173002 11.8619157,58.169359 11.7556286,57.9210455 C11.6491554,57.6725459 11.7373867,57.4687204 12.0212533,57.3088244 C12.3051199,57.1489284 12.8181273,57.0713072 13.5625093,57.0713072 L14.625008,57.2300863 C15.3336507,57.3721127 16.2101935,57.7963304 17.2557532,58.5053454 C18.3007546,59.2138019 19.1598,60.1348327 19.8330757,61.2680653 C20.6483778,62.72109 21.6306493,63.8282628 22.7826823,64.5901421 C23.9337846,65.3520214 25.0943801,65.7323096 26.2633521,65.7323096 C27.432324,65.7323096 28.4419584,65.643706 29.2926274,65.4674295 C30.1423658,65.2902223 30.9396121,65.023853 31.683994,64.6698109 C32.0028553,62.2950109 32.8710218,60.4706329 34.2877487,59.1953739 C32.26848,58.9831719 30.4530368,58.6635661 28.8404884,58.2386038 C27.2288708,57.8130832 25.5634581,57.1224962 23.8453671,56.1649816 C22.1263455,55.2087701 20.7003114,54.0213701 19.5668926,52.6048292 C18.4332877,51.1875438 17.5029498,49.3268681 16.7771821,47.0244774 C16.051042,44.721156 15.6878789,42.0641647 15.6878789,39.0527589 C15.6878789,34.7649773 17.087667,31.1162213 19.8866846,28.1044433 C18.5755002,24.8808357 18.6992847,21.2670744 20.2584103,17.2635317 C21.2859143,16.9442981 22.8096729,17.1838629 24.8289416,17.9807369 C26.8485826,18.7779832 28.3272949,19.4609383 29.2665675,20.0271823 C30.2058402,20.5932402 30.9584124,21.0729282 31.525401,21.4619651 C34.8210456,20.5411205 38.2220466,20.0806051 41.7293347,20.0806051 C45.2366228,20.0806051 48.6383683,20.5411205 51.9341991,21.4619651 L53.9536539,20.1870783 C55.3346416,19.3364093 56.9654319,18.5568465 58.8421158,17.8482038 C60.7199166,17.1399334 62.1558162,16.9448565 63.1483255,17.2640901 C64.7420735,21.2678189 64.8840999,24.8813941 63.5725432,28.1050018 C66.3713747,31.1167798 67.7717212,34.7664665 67.7717212,39.0533174 C67.7717212,42.0647231 67.4072551,44.7300908 66.6822319,47.0510957 C65.956278,49.3724729 65.017936,51.2312872 63.8668337,52.6314475 C62.7144284,54.0314217 61.2792734,55.2095146 59.5611825,56.1655401 C57.8427193,57.1223101 56.1767481,57.812897 54.5651305,58.2384177 C52.9527682,58.6639384 51.137325,58.9837304 49.1180563,59.1963046 C50.9597455,60.7900526 51.8807763,63.3057621 51.8807763,66.7423162 L51.8807763,77.9549535 C51.8807763,78.5919315 52.1022853,79.1237393 52.5456756,79.5487015 C52.9885075,79.9729192 53.6878431,80.0978205 54.6446131,79.9200549 C62.8652035,77.1925158 69.5704116,72.276691 74.7606097,65.1727666 C79.9502494,58.0694007 82.546,50.0718085 82.546,41.1779425 C82.5441386,33.7748879 80.7184576,26.9466399 77.0708184,20.6931985 L77.0708184,20.6931985 Z" id="Shape"></path>
                </g>
            </g>
        </g>
    </g>
</svg>