<?xml version="1.0" encoding="UTF-8" standalone="no"?>
<svg width="689px" height="1224px" viewBox="0 0 689 1224" version="1.1" xmlns="http://www.w3.org/2000/svg" xmlns:xlink="http://www.w3.org/1999/xlink">
    <!-- Generator: Sketch 3.8.3 (29802) - http://www.bohemiancoding.com/sketch -->
    <title>Evil smile</title>
    <desc>Created with Sketch.</desc>
    <defs></defs>
    <g id="Page-1" stroke="none" stroke-width="1" fill="none" fill-rule="evenodd">
        <g id="Artboard-1" transform="translate(-141.000000, 0.000000)">
            <g id="Evil-smile" transform="translate(140.447184, -0.549487)">
                <path d="M32.1057306,880.304614 C63.5680503,898.768359 114.824809,785.589771 86.3901239,900.252063 C57.9554392,1014.91436 -10.9817647,1174.41872 73.7073724,1214.98943 C175.310574,1263.66289 311.740469,1097.06951 369.794058,1097.06951 C427.847646,1097.06951 544.323385,1281.43523 617.75527,1183.37993 C691.187154,1085.32463 652.538505,977.091349 635.777775,893.48363 C629.131567,860.330284 702.641745,889.636641 686.32111,805.384204 C670.000475,721.131767 580.456316,636.714388 577.728825,615.982532 C530.352665,255.872928 102.4865,0.549487327 102.4865,0.549487327 C102.4865,0.549487327 189.442768,515.673633 47.5953411,671.126697 C-25.1716803,750.873342 0.643410938,861.840869 32.1057306,880.304614 Z" id="Oval-29" fill="#FFFFFF"></path>
                <g id="Body" transform="translate(29.000000, 48.000000)">
                    <path d="M125.595373,442.475139 C150.423219,245.375432 100.165294,4.57441036e-13 100.165294,4.57441036e-13 C100.165294,4.57441036e-13 301.911081,135.851065 410.584754,300.505463 C519.258427,465.159862 570.845835,784.669932 570.845835,784.669932 C570.845835,784.669932 636.840505,1025.11218 595.084422,1084.849 C507.185648,1210.59819 413.349574,1038.08829 363.954926,1019.58121 C277.515427,987.194237 36.5844311,1287.4253 36.5844329,1075.09703 C36.5844332,1038.9265 57.5659669,948.140954 74.8344684,864.385257 C84.9744421,815.204349 96.1713213,769.990548 94.8468257,735.560248 C91.2666975,642.494718 22.4317413,878.50728 2.32148938,768.590401 C-17.7887625,658.673523 100.165296,644.355749 125.595373,442.475139 Z" id="Triangle-3-Copy-2" fill="#360F50"></path>
                    <path d="M140.643102,452.766039 C163.768493,266.758023 118.485462,28.5292829 118.485462,28.5292829 C118.485462,28.5292829 294.672499,147.417141 402.137879,307.832137 C509.603259,468.247132 551.294995,760.094802 551.294995,760.094802 C551.294995,760.094802 619.880593,1014.0409 581.424028,1070.44375 C500.470914,1189.17474 412.107875,1014.83856 366.616336,997.364377 C287.007186,966.784958 54.4291326,1259.46755 54.4291343,1058.98953 C54.4291347,1004.78396 110.624563,769.974639 106.32841,738.091026 C96.2100886,662.998598 39.554822,831.739614 10.9137971,767.281667 C-17.7272277,702.823721 122.113044,601.811709 140.643102,452.766039 Z" id="Triangle-3" fill="#773F9B"></path>
                    <path d="M551.283804,715.944614 C561.893821,731.891979 555.921437,770.716682 569.81796,779.049095 C604.513794,799.85286 642.722516,812.419011 642.722516,779.04909 C642.722516,726.813668 518.252926,551.488353 518.252926,597.351784 C518.252926,615.724373 526.489027,678.676874 551.283804,715.944614 Z" id="Oval-68-Copy" fill="#370F50"></path>
                    <path d="M532.767828,718.808174 C569.868169,774.571769 637.184505,812.035897 628.776794,761.761499 C620.369084,711.487101 495.48415,548.324178 495.48415,594.187609 C495.48415,612.560198 507.973051,681.540434 532.767828,718.808174 Z" id="Oval-68" fill="#773F9B"></path>
                    <path d="M20.7745333,782.389441 C29.9526437,785.155791 49.3488805,755.385111 71.5452244,732.643561 C95.9745472,707.614183 142.820548,679.73631 138.90758,694.054084 C137.158066,700.455655 89.8187993,730.515105 79.4480777,740.213526 C60.9750919,757.488968 25.0971909,797.295783 24.1546763,796.045847 C21.7423979,792.846753 1.49498354,776.578441 20.7745333,782.389441 Z" id="Path" fill="#370F50"></path>
                    <path d="M547.217002,741.822177 C539.854775,705.914449 537.410808,674.26088 541.046875,674.260881 C542.963293,674.260881 556.499108,726.843672 562.438141,750.755407 C567.767382,772.211996 573.401334,792.308942 567.444727,796.774322 C561.532183,801.206668 566.246856,803.21445 565.304341,801.964515 C563.861318,800.050819 558.177855,795.281454 547.217002,741.822177 Z" id="Path-Copy-7" fill="#370F50"></path>
                </g>
                <g id="Eye" transform="translate(216.048277, 401.098938)">
                    <path d="M119.410698,159.477364 C179.519104,159.477364 211.621375,99.5906105 211.621375,53.7271794 C211.621375,12.1525284 195.860422,33.5078459 142.267579,38.0111878 C136.739019,38.4757459 42.6393234,7.86374904 42.6393234,53.7271801 C42.6393234,99.5906112 59.3022912,159.477364 119.410698,159.477364 Z" id="Oval-38" fill="#3B7616"></path>
                    <path d="M123.706851,139.756868 C168.788156,139.756868 197.300862,104.542445 197.300862,68.1679995 C197.300862,31.7935542 168.788156,47.1499541 123.706851,47.1499541 C78.6255466,47.1499541 59.8239388,31.7935542 59.8239388,68.1679995 C59.8239388,104.542445 78.6255466,139.756868 123.706851,139.756868 Z" id="Oval-38-Copy" fill="#A3FFBD"></path>
                    <ellipse id="Oval-18-Copy-4" fill="#550072" cx="136.595313" cy="83.5931628" rx="17.1846154" ry="15.7495512"></ellipse>
                    <path d="M92.2520692,31.2724142 C32.9310508,27.1829862 0.49450205,59.6294838 0.49450205,59.6294838 C0.49450205,59.6294838 30.2962131,-3.762703 98.3191891,0.926613958 C166.342165,5.61593092 224.000787,48.0690027 224.000787,48.0690027 C224.000787,48.0690027 151.573087,35.3618421 92.2520692,31.2724142 Z" id="Oval-20-Copy-2" fill="#370F50" transform="translate(112.247645, 30.154099) scale(-1, -1) translate(-112.247645, -30.154099) "></path>
                </g>
                <path d="M364.409529,635.867659 C423.730547,631.778231 442.812475,659.368941 442.812475,659.368941 C442.812475,659.368941 432.43251,601.818336 364.409534,606.507653 C296.386558,611.19697 291.11573,653.641831 291.11573,653.641831 C291.11573,653.641831 305.08851,639.957087 364.409529,635.867659 Z" id="Mouth" fill="#370F50" transform="translate(366.964103, 632.802418) scale(-1, -1) translate(-366.964103, -632.802418) "></path>
            </g>
        </g>
    </g>
</svg>