<?xml version="1.0" encoding="UTF-8" standalone="no"?>
<svg width="975px" height="1420px" viewBox="0 0 975 1420" version="1.1" xmlns="http://www.w3.org/2000/svg" xmlns:xlink="http://www.w3.org/1999/xlink">
    <!-- Generator: Sketch 3.8.3 (29802) - http://www.bohemiancoding.com/sketch -->
    <title>Artboard 1</title>
    <desc>Created with Sketch.</desc>
    <defs></defs>
    <g id="Page-1" stroke="none" stroke-width="1" fill="none" fill-rule="evenodd">
        <g id="Artboard-1">
            <g id="Evil-smile" transform="translate(169.447184, 47.450513)">
                <g id="Body" transform="translate(-0.000000, -0.000000)">
                    <path d="M125.595373,442.475139 C150.423219,245.375432 100.165294,3.43754198e-13 100.165294,3.43754198e-13 C100.165294,3.43754198e-13 301.911081,135.851065 410.584754,300.505463 C519.258427,465.159862 570.845835,784.669932 570.845835,784.669932 C570.845835,784.669932 636.840505,1025.11218 595.084422,1084.849 C507.185648,1210.59819 413.349574,1038.08829 363.954926,1019.58121 C277.515427,987.194237 36.5844311,1287.4253 36.5844329,1075.09703 C36.5844332,1038.9265 57.5659669,948.140954 74.8344684,864.385257 C84.9744421,815.204349 96.1713213,769.990548 94.8468257,735.560248 C91.2666975,642.494718 22.4317413,878.50728 2.32148938,768.590401 C-17.7887625,658.673523 100.165296,644.355749 125.595373,442.475139 Z" id="Triangle-3-Copy-2" fill="#360F50"></path>
                    <path d="M140.643102,452.766039 C163.768493,266.758023 118.485462,28.5292829 118.485462,28.5292829 C118.485462,28.5292829 294.672499,147.417141 402.137879,307.832137 C509.603259,468.247132 551.294995,760.094802 551.294995,760.094802 C551.294995,760.094802 619.880593,1014.0409 581.424028,1070.44375 C500.470914,1189.17474 412.107875,1014.83856 366.616336,997.364377 C287.007186,966.784958 54.4291326,1259.46755 54.4291343,1058.98953 C54.4291347,1004.78396 110.624563,769.974639 106.32841,738.091026 C96.2100886,662.998598 39.554822,831.739614 10.9137971,767.281667 C-17.7272277,702.823721 122.113044,601.811709 140.643102,452.766039 Z" id="Triangle-3" fill="#773F9B"></path>
                    <path d="M551.283804,715.944614 C561.893821,731.891979 555.921437,770.716682 569.81796,779.049095 C604.513794,799.85286 642.722516,812.419011 642.722516,779.04909 C642.722516,726.813668 518.252926,551.488353 518.252926,597.351784 C518.252926,615.724373 526.489027,678.676874 551.283804,715.944614 Z" id="Oval-68-Copy" fill="#370F50"></path>
                    <path d="M532.767828,718.808174 C569.868169,774.571769 637.184505,812.035897 628.776794,761.761499 C620.369084,711.487101 495.48415,548.324178 495.48415,594.187609 C495.48415,612.560198 507.973051,681.540434 532.767828,718.808174 Z" id="Oval-68" fill="#773F9B"></path>
                    <path d="M20.7745333,782.389441 C29.9526437,785.155791 49.3488805,755.385111 71.5452244,732.643561 C95.9745472,707.614183 142.820548,679.73631 138.90758,694.054084 C137.158066,700.455655 89.8187993,730.515105 79.4480777,740.213526 C60.9750919,757.488968 25.0971909,797.295783 24.1546763,796.045847 C21.7423979,792.846753 1.49498354,776.578441 20.7745333,782.389441 Z" id="Path" fill="#370F50"></path>
                    <path d="M547.217002,741.822177 C539.854775,705.914449 537.410808,674.26088 541.046875,674.260881 C542.963293,674.260881 556.499108,726.843672 562.438141,750.755407 C567.767382,772.211996 573.401334,792.308942 567.444727,796.774322 C561.532183,801.206668 566.246856,803.21445 565.304341,801.964515 C563.861318,800.050819 558.177855,795.281454 547.217002,741.822177 Z" id="Path-Copy-7" fill="#370F50"></path>
                </g>
                <g id="Eye" transform="translate(187.048277, 353.098938)">
                    <path d="M119.410698,159.477364 C179.519104,159.477364 211.621375,99.5906105 211.621375,53.7271794 C211.621375,12.1525284 195.860422,33.5078459 142.267579,38.0111878 C136.739019,38.4757459 42.6393234,7.86374904 42.6393234,53.7271801 C42.6393234,99.5906112 59.3022912,159.477364 119.410698,159.477364 Z" id="Oval-38" fill="#3B7616"></path>
                    <path d="M123.706851,139.756868 C168.788156,139.756868 197.300862,104.542445 197.300862,68.1679995 C197.300862,31.7935542 168.788156,47.1499541 123.706851,47.1499541 C78.6255466,47.1499541 59.8239388,31.7935542 59.8239388,68.1679995 C59.8239388,104.542445 78.6255466,139.756868 123.706851,139.756868 Z" id="Oval-38-Copy" fill="#A3FFBD"></path>
                    <ellipse id="Oval-18-Copy-4" fill="#550072" cx="136.595313" cy="83.5931628" rx="17.1846154" ry="15.7495512"></ellipse>
                    <path d="M92.2520692,31.2724142 C32.9310508,27.1829862 0.49450205,59.6294838 0.49450205,59.6294838 C0.49450205,59.6294838 30.2962131,-3.762703 98.3191891,0.926613958 C166.342165,5.61593092 224.000787,48.0690027 224.000787,48.0690027 C224.000787,48.0690027 151.573087,35.3618421 92.2520692,31.2724142 Z" id="Oval-20-Copy-2" fill="#370F50" transform="translate(112.247645, 30.154099) scale(-1, -1) translate(-112.247645, -30.154099) "></path>
                </g>
                <path d="M335.409529,587.867659 C394.730547,583.778231 413.812475,611.368941 413.812475,611.368941 C413.812475,611.368941 403.43251,553.818336 335.409534,558.507653 C267.386558,563.19697 262.11573,605.641831 262.11573,605.641831 C262.11573,605.641831 276.08851,591.957087 335.409529,587.867659 Z" id="Mouth" fill="#370F50" transform="translate(337.964103, 584.802418) scale(-1, -1) translate(-337.964103, -584.802418) "></path>
            </g>
            <path d="M235.801624,1260.56148 C235.923048,1261.6543 235.983759,1262.50425 235.983759,1263.11137 C235.983759,1266.8755 235.619493,1270.2146 234.890951,1273.12877 C234.405257,1274.8287 233.798147,1277.07501 233.069606,1279.86775 C231.612522,1286.91032 230.094749,1292.07075 228.516241,1295.34919 C226.330616,1300.08471 222.930804,1304.09163 218.316705,1307.37007 C216.859621,1308.09861 215.402559,1308.82714 213.945476,1309.55568 C212.124121,1310.6485 210.940258,1311.77165 210.393852,1312.92517 C209.847445,1314.0787 209.574246,1314.95901 209.574246,1315.56613 C209.938517,1317.63033 210.12065,1319.08739 210.12065,1319.93735 L209.392111,1333.41531 C209.634959,1335.23667 209.756381,1336.5116 209.756381,1337.24014 C209.756381,1337.60441 209.634959,1338.27223 209.392111,1339.24362 C208.299298,1341.55067 206.41726,1343.61484 203.74594,1345.43619 L194.821346,1351.8109 L194.092807,1345.9826 C194.578502,1342.94701 194.821346,1339.91146 194.821346,1336.87587 C194.821346,1335.05452 194.699924,1332.29217 194.457077,1328.58875 C194.214229,1324.88533 194.092807,1322.12298 194.092807,1320.30162 L194.092807,1256.91879 C194.092807,1256.4331 193.728542,1252.91187 193,1246.35499 C193,1242.46943 194.153507,1239.79815 196.460557,1238.34107 C197.189099,1237.85537 198.342606,1237.12684 199.921114,1236.15545 C203.078129,1233.96983 204.899456,1232.63419 205.385151,1232.14849 C207.206506,1231.05568 209.331388,1230.38786 211.759861,1230.14501 C215.766841,1230.14501 219.834473,1232.30025 223.962877,1236.61079 C228.091281,1240.92133 230.823273,1244.04794 232.158933,1245.99072 C233.73744,1248.41919 234.678459,1250.84763 234.982019,1253.2761 C235.285578,1255.70458 235.558777,1258.13301 235.801624,1260.56148 L235.801624,1260.56148 Z M223.416473,1269.85035 L222.87007,1261.65429 C222.505799,1255.82596 220.138073,1253.15468 215.766821,1253.64037 C209.938486,1253.64037 206.356542,1254.9153 205.020882,1257.4652 C204.778034,1258.07232 204.778034,1258.86156 205.020882,1259.83295 C205.142305,1260.80434 205.203016,1261.53287 205.203016,1262.01856 C205.203016,1267.72547 205.324438,1272.52164 205.567285,1276.40719 C206.417251,1290.12807 206.842227,1297.77764 206.842227,1299.35615 C210.484937,1297.53479 212.852663,1296.19915 213.945476,1295.34919 C216.616796,1293.77068 218.680967,1291.94935 220.138051,1289.88515 C222.4451,1286.72814 223.598608,1282.78193 223.598608,1278.0464 C223.598608,1274.40369 223.537897,1271.6717 223.416473,1269.85035 L223.416473,1269.85035 Z M302.169217,1215.57425 C302.169217,1224.68102 301.440686,1240.04088 299.983602,1261.65429 C299.25506,1272.461 298.890795,1281.68906 298.890795,1289.33875 C298.890795,1293.58857 298.58724,1299.05256 297.980122,1305.73086 C297.25158,1314.59479 296.826603,1319.99806 296.70518,1321.94084 L296.70518,1325.40139 C296.70518,1326.4942 296.765891,1327.52629 296.887314,1328.49768 C296.887314,1332.74751 295.91594,1336.63301 293.973161,1340.15429 C290.816146,1345.8612 284.016524,1349.32173 273.574089,1350.53596 C262.767384,1351.7502 256.149894,1341.06508 253.721421,1318.48028 C253.114303,1312.89479 252.810748,1306.8237 252.810748,1300.26682 C252.810748,1294.68133 252.871459,1290.49228 252.992883,1287.69954 L253.903556,1264.56845 C253.903556,1261.41143 254.055333,1256.73669 254.358892,1250.54408 C254.662451,1244.35148 254.814228,1239.73745 254.814228,1236.70186 C254.814228,1235.60904 254.632096,1234.06091 254.267825,1232.05742 C253.903554,1230.05393 253.721421,1228.50581 253.721421,1227.41299 C253.721421,1222.43462 256.574834,1219.27766 262.281746,1217.942 C265.803032,1217.09203 268.049336,1216.48492 269.020725,1216.12065 C269.142149,1217.942 269.627836,1221.94892 270.477802,1228.14153 C271.08492,1233.24132 271.388474,1237.30896 271.388474,1240.34455 C271.388474,1246.90142 271.267053,1252.48683 271.024205,1257.10093 L269.749263,1282.05336 C269.749263,1287.39601 270.113529,1293.4671 270.842071,1300.26682 L272.845551,1318.84455 C274.059788,1330.25837 277.823864,1335.9652 284.137894,1335.9652 C289.480535,1335.35808 292.151815,1329.59054 292.151815,1318.66241 C292.151815,1313.07692 292.333948,1307.97721 292.698219,1303.36311 C293.791032,1289.39939 294.33743,1281.20342 294.33743,1278.77494 C294.33743,1261.53278 295.490938,1240.64823 297.797987,1216.12065 L302.169217,1215.57425 Z M361.79783,1343.79698 L357.426601,1344.34339 L355.969524,1331.95824 C355.119559,1325.03709 351.598325,1318.11604 345.405719,1311.1949 C343.948635,1309.13069 342.855839,1307.67363 342.127297,1306.82367 C340.791637,1305.24516 339.273864,1304.45592 337.573933,1304.45592 L327.374397,1305.73086 L326.099455,1349.07889 L321.54609,1349.80742 L322.092494,1231.23782 L328.102935,1230.50928 C331.25995,1230.87355 335.93469,1231.48066 342.127297,1232.33063 C349.776987,1233.54486 355.24097,1238.64458 358.519408,1247.62993 C359.490797,1250.66552 360.462172,1256.55448 361.433561,1265.29698 C361.797832,1268.69685 361.979965,1271.30742 361.979965,1273.12877 C361.979965,1285.27114 357.365935,1294.13493 348.137738,1299.72042 C348.137738,1299.72042 346.680676,1300.57037 343.766508,1302.2703 C353.966095,1309.07003 359.61221,1318.84448 360.705023,1331.59397 L361.79783,1343.79698 Z M348.866276,1272.94664 C347.652039,1263.71844 340.973839,1258.01161 328.831473,1255.82599 L329.377877,1298.62761 L332.838434,1298.26334 C338.302498,1297.65622 342.491551,1295.04565 345.405719,1290.43155 C347.834192,1286.42457 349.048411,1281.50699 349.048411,1275.67865 C348.926987,1274.46442 348.866276,1273.55375 348.866276,1272.94664 L348.866276,1272.94664 Z M421.608579,1260.56148 C421.730002,1261.6543 421.790713,1262.50425 421.790713,1263.11137 C421.790713,1266.8755 421.426448,1270.2146 420.697906,1273.12877 C420.212211,1274.8287 419.605102,1277.07501 418.87656,1279.86775 C417.419476,1286.91032 415.901703,1292.07075 414.323196,1295.34919 C412.13757,1300.08471 408.737759,1304.09163 404.12366,1307.37007 C402.666576,1308.09861 401.209514,1308.82714 399.75243,1309.55568 C397.931075,1310.6485 396.747213,1311.77165 396.200806,1312.92517 C395.6544,1314.0787 395.3812,1314.95901 395.3812,1315.56613 C395.745471,1317.63033 395.927604,1319.08739 395.927604,1319.93735 L395.199066,1333.41531 C395.441913,1335.23667 395.563335,1336.5116 395.563335,1337.24014 C395.563335,1337.60441 395.441913,1338.27223 395.199066,1339.24362 C394.106253,1341.55067 392.224215,1343.61484 389.552894,1345.43619 L380.6283,1351.8109 L379.899762,1345.9826 C380.385457,1342.94701 380.6283,1339.91146 380.6283,1336.87587 C380.6283,1335.05452 380.506878,1332.29217 380.264031,1328.58875 C380.021184,1324.88533 379.899762,1322.12298 379.899762,1320.30162 L379.899762,1256.91879 C379.899762,1256.4331 379.535496,1252.91187 378.806955,1246.35499 C378.806955,1242.46943 379.960462,1239.79815 382.267511,1238.34107 C382.996053,1237.85537 384.149561,1237.12684 385.728068,1236.15545 C388.885083,1233.96983 390.706411,1232.63419 391.192105,1232.14849 C393.01346,1231.05568 395.138342,1230.38786 397.566815,1230.14501 C401.573796,1230.14501 405.641427,1232.30025 409.769832,1236.61079 C413.898236,1240.92133 416.630227,1244.04794 417.965887,1245.99072 C419.544395,1248.41919 420.485414,1250.84763 420.788973,1253.2761 C421.092532,1255.70458 421.365731,1258.13301 421.608579,1260.56148 L421.608579,1260.56148 Z M409.223428,1269.85035 L408.677024,1261.65429 C408.312753,1255.82596 405.945027,1253.15468 401.573776,1253.64037 C395.74544,1253.64037 392.163496,1254.9153 390.827836,1257.4652 C390.584989,1258.07232 390.584989,1258.86156 390.827836,1259.83295 C390.94926,1260.80434 391.009971,1261.53287 391.009971,1262.01856 C391.009971,1267.72547 391.131393,1272.52164 391.37424,1276.40719 C392.224206,1290.12807 392.649182,1297.77764 392.649182,1299.35615 C396.291892,1297.53479 398.659617,1296.19915 399.75243,1295.34919 C402.423751,1293.77068 404.487922,1291.94935 405.945006,1289.88515 C408.252055,1286.72814 409.405562,1282.78193 409.405562,1278.0464 C409.405562,1274.40369 409.344852,1271.6717 409.223428,1269.85035 L409.223428,1269.85035 Z M449.727912,1199 C449.727912,1211.87091 449.60649,1223.16314 449.363642,1232.87703 L448.270835,1284.23898 C448.270835,1288.85308 448.392257,1295.47057 448.635104,1304.09165 L448.999373,1319.39095 C448.999373,1320.60519 449.181506,1322.39616 449.545777,1324.76392 C449.910048,1327.13168 450.092181,1328.92265 450.092181,1330.13689 C450.092181,1331.83682 449.849337,1333.41531 449.363642,1334.87239 C448.877948,1337.17944 446.753066,1340.57925 442.988932,1345.07193 C440.317612,1348.35036 438.071308,1351.50733 436.249953,1354.54292 L430.603782,1208.83527 C433.517949,1207.86388 436.553495,1206.46753 439.71051,1204.64617 L449.727912,1199 Z M517.552581,1235.24478 C517.795428,1237.30898 517.91685,1239.85884 517.91685,1242.89443 C517.91685,1248.72277 516.945475,1255.46168 515.002697,1263.11137 C511.967106,1275.01089 510.206489,1282.47833 509.720794,1285.51392 L484.586224,1283.87471 C483.736258,1284.48183 483.068438,1287.21382 482.582743,1292.07077 C482.46132,1292.79931 482.157765,1294.62064 481.67207,1297.5348 C481.307799,1299.84185 481.125667,1301.60247 481.125667,1302.81671 C481.125667,1305.73087 482.218463,1311.55912 484.404089,1320.30162 C484.76836,1323.33722 485.132625,1326.43347 485.496896,1329.59049 C486.468286,1333.59747 488.228902,1335.60093 490.778799,1335.60093 C492.114459,1335.60093 493.025123,1334.93311 493.510818,1333.59745 C493.996512,1332.26179 494.482199,1330.74401 494.967894,1329.04408 C497.032096,1323.33717 498.064182,1317.9339 498.064182,1312.83411 L498.064182,1309.55568 C497.821334,1307.73433 497.699913,1306.39869 497.699913,1305.54872 L502.981815,1304.82019 L510.631467,1307.37007 C512.088551,1308.09861 512.817082,1309.19141 512.817082,1310.64849 C512.938506,1311.49846 512.999217,1312.77339 512.999217,1314.47332 C512.999217,1319.57311 511.724287,1324.55141 509.174391,1329.40835 C508.081578,1331.35113 506.26025,1334.38668 503.710353,1338.51508 C502.617541,1340.09359 501.039057,1342.4006 498.974855,1345.43619 C497.032076,1347.62182 494.725061,1348.71462 492.053741,1348.71462 C489.139573,1349.07889 486.529004,1348.16822 484.221954,1345.9826 C483.371989,1345.13263 481.550661,1342.52206 478.757917,1338.15081 C471.593922,1326.85841 467.283447,1314.59481 465.826363,1301.35963 C465.219245,1295.28845 464.91569,1290.06731 464.91569,1285.69606 C464.91569,1278.28921 466.858439,1266.02561 470.743996,1248.90487 C471.472538,1245.01932 472.201069,1241.13382 472.929611,1237.24826 C473.901,1232.87701 475.17593,1229.08258 476.754437,1225.86485 C478.332945,1222.64712 480.761381,1220.37046 484.03982,1219.0348 C486.104022,1218.06341 489.564544,1217.27417 494.42149,1216.66705 C495.271456,1216.66705 496.576741,1216.57599 498.337384,1216.39385 C500.098027,1216.21172 501.403311,1216.12065 502.253277,1216.12065 C504.68175,1216.12065 507.110187,1216.48492 509.53866,1217.21346 C512.817098,1218.18485 515.063402,1220.55257 516.277639,1224.31671 C516.763333,1225.65237 517.18831,1229.29502 517.552581,1235.24478 L517.552581,1235.24478 Z M506.806641,1237.9768 C505.592405,1229.59857 502.071171,1225.77378 496.242836,1226.50232 C493.935787,1226.50232 492.17517,1228.14151 490.960934,1231.41995 L488.593184,1237.43039 C484.950474,1245.32293 483.129147,1253.15464 483.129147,1260.92575 C483.129147,1264.32562 483.250569,1267.05761 483.493416,1269.12181 L484.221954,1275.31439 L502.071142,1276.22506 C503.64965,1265.41835 505.288845,1254.5511 506.988776,1243.62297 L506.988776,1240.16241 C506.867352,1239.19102 506.806641,1238.46249 506.806641,1237.9768 L506.806641,1237.9768 Z M565.888851,1306.27726 C565.888851,1312.95556 565.82814,1317.08391 565.706717,1318.66241 C565.221022,1325.21929 563.399694,1331.47251 560.242679,1337.42227 C557.93563,1341.6721 555.871459,1345.0112 554.050104,1347.43968 C551.621631,1350.59669 548.586085,1353.4501 544.943375,1356 C543.243444,1354.17865 541.877449,1351.87163 540.845348,1349.07889 C539.813247,1346.28614 538.872227,1343.55415 538.022262,1340.88283 L534.561705,1331.41183 C533.590316,1328.25482 533.104628,1324.73358 533.104628,1320.84803 C533.104628,1318.90525 533.590316,1317.20534 534.561705,1315.74826 C537.840144,1312.22697 540.572135,1309.07001 542.757761,1306.27726 C543.122032,1307.37008 544.700515,1312.34837 547.493259,1321.2123 C548.343225,1324.12646 549.3146,1326.67632 550.407413,1328.86195 C551.257378,1326.31205 551.682355,1323.64077 551.682355,1320.84803 C551.682355,1319.02667 551.469866,1316.32504 551.044884,1312.74304 C550.619901,1309.16104 550.407413,1306.45941 550.407413,1304.63805 C550.407413,1299.05256 550.22528,1290.61375 549.861009,1279.32135 C549.496738,1268.02895 549.314605,1259.59013 549.314605,1254.00464 C549.314605,1252.54756 549.253894,1250.45303 549.132471,1247.721 C549.011047,1244.98897 548.950336,1242.89444 548.950336,1241.43735 C548.950336,1240.70881 548.768203,1239.55531 548.403932,1237.9768 C548.039661,1236.39829 547.857529,1235.24478 547.857529,1234.51624 C547.857529,1230.99496 550.164543,1228.38439 554.778642,1226.68445 C557.69281,1225.71307 560.789067,1224.68098 564.067505,1223.58817 L565.888851,1269.66821 L565.888851,1306.27726 Z M623.696119,1307.5522 L623.696119,1309.91995 C623.696119,1312.95554 623.210432,1316.53749 622.239042,1320.66589 C621.267653,1324.18718 620.356989,1327.70841 619.507024,1331.2297 C617.928516,1337.78658 616.289322,1342.46132 614.58939,1345.25406 C611.796646,1349.62531 608.03257,1351.99304 603.297047,1352.35731 C601.839963,1352.47873 599.65437,1352.66086 596.740203,1352.90371 C593.947458,1352.90371 591.761866,1352.11447 590.183358,1350.53596 C588.60485,1348.95746 587.572765,1346.83257 587.08707,1344.16125 C586.358528,1334.32594 585.994263,1330.01546 585.994263,1331.2297 L585.994263,1321.39443 C585.994263,1319.33023 586.054974,1317.08393 586.176397,1314.65545 L593.279646,1314.65545 C596.315237,1314.77688 598.197275,1315.38399 598.925817,1316.4768 C599.654359,1317.56961 599.957914,1319.63378 599.83649,1322.66937 C599.715067,1326.31208 599.654356,1328.01199 599.654356,1327.76914 C599.654356,1328.37626 599.775778,1329.52977 600.018625,1331.2297 L600.018625,1337.78654 C600.382896,1340.70071 601.475692,1342.09706 603.297047,1341.97564 C606.089791,1341.36852 608.093251,1338.09013 609.307488,1332.14037 C610.03603,1328.13339 610.400295,1322.0623 610.400295,1313.92691 C609.793177,1308.7057 602.811422,1301.29897 589.45482,1291.7065 C583.14079,1287.21382 579.680267,1282.1141 579.073149,1276.40719 C578.951726,1275.31438 578.891015,1273.97874 578.891015,1272.40023 C578.891015,1270.7003 579.133858,1268.51471 579.619553,1265.84339 C580.105248,1262.44353 580.408802,1260.31864 580.530226,1259.46868 C581.258768,1252.18326 582.472986,1246.53714 584.172917,1242.53016 C586.479967,1237.43037 590.244043,1233.1806 595.465261,1229.78074 C601.41502,1225.89519 605.543362,1223.95244 607.850411,1223.95244 C610.643155,1223.95244 613.526924,1226.2291 616.501803,1230.78248 C619.476683,1235.33587 621.267655,1239.43386 621.874773,1243.07657 L621.874773,1262.56497 C618.232064,1263.17208 612.828792,1263.96133 605.664797,1264.93271 C608.700388,1256.31164 610.218161,1248.84419 610.218161,1242.53016 L610.218161,1239.98028 C610.218161,1238.88747 610.096739,1236.64116 609.853892,1233.2413 C609.732468,1232.63418 609.489624,1232.33063 609.125353,1232.33063 C606.089762,1232.93774 603.29706,1235.54831 600.747163,1240.16241 C597.104453,1246.84071 595.283126,1252.12256 595.283126,1256.00812 C595.283126,1257.10093 595.343837,1257.95089 595.465261,1258.558 C596.072379,1265.47915 600.686408,1273.18944 609.307488,1281.6891 C618.899957,1291.28156 623.696119,1299.90251 623.696119,1307.5522 L623.696119,1307.5522 Z M653.20992,1351.62877 L653.20992,1329.66235 L675.176345,1329.66235 L675.176345,1351.62877 L653.20992,1351.62877 Z M726.270958,1201.91415 L722.810401,1246.35499 L712.610865,1243.2587 C709.332426,1242.40874 705.811193,1241.98376 702.04706,1241.98376 L702.593464,1204.46404 L726.270958,1201.91415 Z M731.006457,1259.10441 C728.699407,1273.18955 727.5459,1289.33866 727.5459,1307.5522 L727.5459,1315.38399 L726.817362,1329.77262 C726.817362,1330.62259 726.999494,1332.80818 727.363765,1336.32947 C727.363765,1337.42228 727.060211,1338.6365 726.453092,1339.97216 C725.117432,1343.00775 721.899754,1345.98258 716.79996,1348.89675 C713.035827,1351.08238 710.121703,1352.96442 708.057501,1354.54292 C708.057501,1344.70761 707.875368,1335.47955 707.511097,1326.85847 C706.539708,1303.78797 706.054021,1290.12802 706.054021,1285.87819 C706.054021,1284.54253 705.841532,1282.59978 705.41655,1280.04988 C704.991567,1277.49999 704.779079,1275.55724 704.779079,1274.22158 C704.900502,1273.49304 704.961213,1272.88593 704.961213,1272.40023 C704.961213,1271.55027 704.77908,1269.97178 704.414809,1267.66473 C704.414809,1265.23626 705.629028,1263.65778 708.057501,1262.92923 C709.514585,1262.56496 710.971647,1262.13999 712.428731,1261.65429 L718.803441,1258.558 C720.746219,1257.58662 722.871101,1256.3724 725.178151,1254.91531 L730.642188,1254.18677 L731.006457,1259.10441 Z M785.353168,1265.66125 C785.474591,1266.87549 785.960279,1270.2753 786.810244,1275.86079 C787.538786,1280.11062 787.903052,1283.57114 787.903052,1286.24246 C787.903052,1289.64232 787.599497,1294.31706 786.992379,1300.26682 C786.749532,1304.03095 786.142422,1309.91991 785.171033,1317.93387 C784.321068,1322.54797 783.471115,1327.162 782.621149,1331.7761 C781.406913,1337.36159 779.88914,1341.67207 778.067785,1344.70766 C775.032194,1349.68603 771.025273,1352.17517 766.046903,1352.17517 C759.490026,1352.78229 754.390309,1349.56461 750.747599,1342.52204 C748.076279,1337.42225 746.376373,1331.0476 745.647831,1323.39791 C745.647831,1315.74822 745.404988,1308.82718 744.919293,1302.63457 C743.462209,1284.17818 742.733678,1272.94666 742.733678,1268.93968 C742.733678,1262.62565 743.583631,1254.36896 745.283562,1244.16937 C748.076306,1227.04864 755.179484,1217.88129 766.593307,1216.66705 C775.578657,1215.69566 781.831882,1232.0269 785.353168,1265.66125 L785.353168,1265.66125 Z M778.614189,1264.75058 C777.885647,1258.31513 775.396499,1255.09745 771.146671,1255.09745 C767.382538,1255.46172 764.468414,1257.64731 762.404212,1261.65429 C761.554246,1263.35422 760.279317,1267.48257 758.579386,1274.03944 C756.39376,1282.90337 754.936698,1290.12797 754.208156,1295.71346 C753.115343,1303.84884 752.690367,1310.95202 752.933214,1317.0232 L753.297483,1325.9478 C754.997415,1338.09016 758.397226,1344.16125 763.497019,1344.16125 C769.568202,1344.16125 773.635833,1341.12571 775.700036,1335.05452 C777.035696,1331.16897 777.703516,1324.79432 777.703516,1315.93039 L777.703516,1308.46288 C777.703516,1304.82017 777.94636,1299.38654 778.432054,1292.16183 C778.917749,1284.93713 779.160592,1279.5035 779.160592,1275.86079 C779.160592,1271.48954 778.97846,1267.78617 778.614189,1264.75058 L778.614189,1264.75058 Z" id="purplejs.io" fill="#6DC138"></path>
        </g>
    </g>
</svg>