<?xml version="1.0" encoding="UTF-8" standalone="no"?>
<svg width="332px" height="122px" viewBox="0 0 332 122" version="1.1" xmlns="http://www.w3.org/2000/svg" xmlns:xlink="http://www.w3.org/1999/xlink">
    <!-- Generator: Sketch 3.8.3 (29802) - http://www.bohemiancoding.com/sketch -->
    <title>purplejs</title>
    <desc>Created with Sketch.</desc>
    <defs></defs>
    <g id="Page-1" stroke="none" stroke-width="1" fill="none" fill-rule="evenodd">
        <path d="M33.3329024,48 C33.4262362,48.8400042 33.4729024,49.493331 33.4729024,49.96 C33.4729024,52.8533478 33.1929052,55.4199888 32.6329024,57.66 C32.2595672,58.9666732 31.7929052,60.6933226 31.2329024,62.84 C30.1128968,68.2533604 28.9462418,72.2199874 27.7329024,74.74 C26.052894,78.3800182 23.4395868,81.4599874 19.8929024,83.98 C18.7728968,84.5400028 17.652908,85.0999972 16.5329024,85.66 C15.1328954,86.5000042 14.2229045,87.3633289 13.8029024,88.25 C13.3829003,89.1366711 13.1729024,89.813331 13.1729024,90.28 C13.4529038,91.8666746 13.5929024,92.9866634 13.5929024,93.64 L13.0329024,104 C13.21957,105.400007 13.3129024,106.379997 13.3129024,106.94 C13.3129024,107.220001 13.21957,107.73333 13.0329024,108.48 C12.1928982,110.253342 10.746246,111.839993 8.69290241,113.24 L1.83290241,118.14 L1.27290241,113.66 C1.64623761,111.326655 1.83290241,108.993345 1.83290241,106.66 C1.83290241,105.259993 1.73957001,103.136681 1.55290241,100.29 C1.36623481,97.4433191 1.27290241,95.320007 1.27290241,93.92 L1.27290241,45.2 C1.27290241,44.8266648 0.992905212,42.1200252 0.432902412,37.08 C0.432902412,34.0933184 1.31956021,32.0400056 3.09290241,30.92 C3.65290521,30.5466648 4.53956301,29.9866704 5.75290241,29.24 C8.17958121,27.5599916 9.57956721,26.5333352 9.95290241,26.16 C11.3529094,25.3199958 12.9862264,24.8066676 14.8529024,24.62 C17.9329178,24.62 21.0595532,26.2766501 24.2329024,29.59 C27.4062516,32.9033499 29.5062306,35.3066592 30.5329024,36.8 C31.7462418,38.666676 32.4695679,40.533324 32.7029024,42.4 C32.9362369,44.266676 33.1462348,46.133324 33.3329024,48 L33.3329024,48 Z M23.8129024,55.14 L23.3929024,48.84 C23.112901,44.3599776 21.2929192,42.3066648 17.9329024,42.68 C13.45288,42.68 10.6995742,43.6599902 9.67290241,45.62 C9.48623481,46.086669 9.48623481,46.6933296 9.67290241,47.44 C9.76623621,48.1866704 9.81290241,48.7466648 9.81290241,49.12 C9.81290241,53.5066886 9.90623481,57.1933184 10.0929024,60.18 C10.746239,70.7267194 11.0729024,76.6066606 11.0729024,77.82 C13.8729164,76.419993 15.6928982,75.3933366 16.5329024,74.74 C18.586246,73.5266606 20.1728968,72.1266746 21.2929024,70.54 C23.0662446,68.1133212 23.9529024,65.0800182 23.9529024,61.44 C23.9529024,58.639986 23.9062362,56.540007 23.8129024,55.14 L23.8129024,55.14 Z M84.3471768,13.42 C84.3471768,20.420035 83.7871824,32.2265836 82.6671768,48.84 C82.107174,57.1467082 81.8271768,64.2399706 81.8271768,70.12 C81.8271768,73.386683 81.5938458,77.586641 81.1271768,82.72 C80.567174,89.5333674 80.2405106,93.6866592 80.1471768,95.18 L80.1471768,97.84 C80.1471768,98.6800042 80.193843,99.4733296 80.2871768,100.22 C80.2871768,103.486683 79.5405176,106.47332 78.0471768,109.18 C75.620498,113.566689 70.3938836,116.226662 62.3671768,117.16 C54.0604686,118.093338 48.9738528,109.880087 47.1071768,92.52 C46.6405078,88.2266452 46.4071768,83.5600252 46.4071768,78.52 C46.4071768,74.2266452 46.453843,71.0066774 46.5471768,68.86 L47.2471768,51.08 C47.2471768,48.6533212 47.3638423,45.0600238 47.5971768,40.3 C47.8305113,35.5399762 47.9471768,31.993345 47.9471768,29.66 C47.9471768,28.8199958 47.8071782,27.6300077 47.5271768,26.09 C47.2471754,24.5499923 47.1071768,23.3600042 47.1071768,22.52 C47.1071768,18.6933142 49.3004882,16.2666718 53.6871768,15.24 C56.393857,14.5866634 58.1205064,14.1200014 58.8671768,13.84 C58.9605106,15.240007 59.3338402,18.3199762 59.9871768,23.08 C60.4538458,27.0000196 60.6871768,30.126655 60.6871768,32.46 C60.6871768,37.5000252 60.5938444,41.7933156 60.4071768,45.34 L59.4271768,64.52 C59.4271768,68.6266872 59.707174,73.2933072 60.2671768,78.52 L61.8071768,92.8 C62.7405148,101.573377 65.6338192,105.96 70.4871768,105.96 C74.593864,105.493331 76.6471768,101.060042 76.6471768,92.66 C76.6471768,88.3666452 76.7871754,84.4466844 77.0671768,80.9 C77.907181,70.166613 78.3271768,63.866676 78.3271768,62 C78.3271768,48.7466004 79.2138346,32.6934276 80.9871768,13.84 L84.3471768,13.42 Z M130.181451,111.98 L126.821451,112.4 L125.701451,102.88 C125.048115,97.5599734 122.341475,92.2400266 117.581451,86.92 C116.461446,85.3333254 115.621454,84.2133366 115.061451,83.56 C114.034779,82.3466606 112.868124,81.74 111.561451,81.74 L103.721451,82.72 L102.741451,116.04 L99.2414512,116.6 L99.6614512,25.46 L104.281451,24.9 C106.70813,25.1800014 110.301427,25.6466634 115.061451,26.3 C120.941481,27.233338 125.141439,31.1532988 127.661451,38.06 C128.408122,40.393345 129.154781,44.9199664 129.901451,51.64 C130.181453,54.2533464 130.321451,56.259993 130.321451,57.66 C130.321451,66.99338 126.77482,73.8066452 119.681451,78.1 C119.681451,78.1 118.561462,78.7533268 116.321451,80.06 C124.16149,85.2866928 128.501447,92.799951 129.341451,102.6 L130.181451,111.98 Z M120.241451,57.52 C119.308113,50.4266312 114.174831,46.0400084 104.841451,44.36 L105.261451,77.26 L107.921451,76.98 C112.121472,76.513331 115.34144,74.5066844 117.581451,70.96 C119.448127,67.8799846 120.381451,64.1000224 120.381451,59.62 C120.288117,58.686662 120.241451,57.986669 120.241451,57.52 L120.241451,57.52 Z M176.155726,48 C176.249059,48.8400042 176.295726,49.493331 176.295726,49.96 C176.295726,52.8533478 176.015728,55.4199888 175.455726,57.66 C175.08239,58.9666732 174.615728,60.6933226 174.055726,62.84 C172.93572,68.2533604 171.769065,72.2199874 170.555726,74.74 C168.875717,78.3800182 166.26241,81.4599874 162.715726,83.98 C161.59572,84.5400028 160.475731,85.0999972 159.355726,85.66 C157.955719,86.5000042 157.045728,87.3633289 156.625726,88.25 C156.205724,89.1366711 155.995726,89.813331 155.995726,90.28 C156.275727,91.8666746 156.415726,92.9866634 156.415726,93.64 L155.855726,104 C156.042393,105.400007 156.135726,106.379997 156.135726,106.94 C156.135726,107.220001 156.042393,107.73333 155.855726,108.48 C155.015721,110.253342 153.569069,111.839993 151.515726,113.24 L144.655726,118.14 L144.095726,113.66 C144.469061,111.326655 144.655726,108.993345 144.655726,106.66 C144.655726,105.259993 144.562393,103.136681 144.375726,100.29 C144.189058,97.4433191 144.095726,95.320007 144.095726,93.92 L144.095726,45.2 C144.095726,44.8266648 143.815728,42.1200252 143.255726,37.08 C143.255726,34.0933184 144.142383,32.0400056 145.915726,30.92 C146.475728,30.5466648 147.362386,29.9866704 148.575726,29.24 C151.002404,27.5599916 152.40239,26.5333352 152.775726,26.16 C154.175733,25.3199958 155.80905,24.8066676 157.675726,24.62 C160.755741,24.62 163.882376,26.2766501 167.055726,29.59 C170.229075,32.9033499 172.329054,35.3066592 173.355726,36.8 C174.569065,38.666676 175.292391,40.533324 175.525726,42.4 C175.75906,44.266676 175.969058,46.133324 176.155726,48 L176.155726,48 Z M166.635726,55.14 L166.215726,48.84 C165.935724,44.3599776 164.115742,42.3066648 160.755726,42.68 C156.275703,42.68 153.522397,43.6599902 152.495726,45.62 C152.309058,46.086669 152.309058,46.6933296 152.495726,47.44 C152.589059,48.1866704 152.635726,48.7466648 152.635726,49.12 C152.635726,53.5066886 152.729058,57.1933184 152.915726,60.18 C153.569062,70.7267194 153.895726,76.6066606 153.895726,77.82 C156.69574,76.419993 158.515721,75.3933366 159.355726,74.74 C161.409069,73.5266606 162.99572,72.1266746 164.115726,70.54 C165.889068,68.1133212 166.775726,65.0800182 166.775726,61.44 C166.775726,58.639986 166.729059,56.540007 166.635726,55.14 L166.635726,55.14 Z M197.77,0.68 C197.77,10.5733828 197.676668,19.253296 197.49,26.72 L196.65,66.2 C196.65,69.7466844 196.743332,74.8333002 196.93,81.46 L197.21,93.22 C197.21,94.153338 197.349999,95.5299909 197.63,97.35 C197.910001,99.1700091 198.05,100.546662 198.05,101.48 C198.05,102.786673 197.863335,103.999994 197.49,105.12 C197.116665,106.893342 195.483348,109.506649 192.59,112.96 C190.536656,115.480013 188.810007,117.906655 187.41,120.24 L183.07,8.24 C185.310011,7.4933296 187.643321,6.420007 190.07,5.02 L197.77,0.68 Z M249.904274,28.54 C250.090942,30.1266746 250.184274,32.086655 250.184274,34.42 C250.184274,38.9000224 249.437615,44.0799706 247.944274,49.96 C245.610929,59.1067124 244.25761,64.846655 243.884274,67.18 L224.564274,65.92 C223.910938,66.386669 223.39761,68.486648 223.024274,72.22 C222.930941,72.7800028 222.69761,74.1799888 222.324274,76.42 C222.044273,78.1933422 221.904274,79.546662 221.904274,80.48 C221.904274,82.7200112 222.744266,87.1999664 224.424274,93.92 C224.704276,96.253345 224.984273,98.6333212 225.264274,101.06 C226.010945,104.140015 227.364265,105.68 229.324274,105.68 C230.350946,105.68 231.050939,105.166672 231.424274,104.14 C231.79761,103.113328 232.170939,101.946673 232.544274,100.64 C234.130949,96.2533114 234.924274,92.1000196 234.924274,88.18 L234.924274,85.66 C234.737607,84.259993 234.644274,83.2333366 234.644274,82.58 L238.704274,82.02 L244.584274,83.98 C245.70428,84.5400028 246.264274,85.3799944 246.264274,86.5 C246.357608,87.1533366 246.404274,88.1333268 246.404274,89.44 C246.404274,93.3600196 245.424284,97.186648 243.464274,100.92 C242.62427,102.413341 241.224284,104.746651 239.264274,107.92 C238.42427,109.133339 237.210949,110.906655 235.624274,113.24 C234.130934,114.920008 232.357618,115.76 230.304274,115.76 C228.064263,116.040001 226.057617,115.340008 224.284274,113.66 C223.630938,113.006663 222.230952,111.000017 220.084274,107.64 C214.57758,98.9599566 211.26428,89.5333842 210.144274,79.36 C209.677605,74.69331 209.444274,70.6800168 209.444274,67.32 C209.444274,61.6266382 210.937593,52.2000658 213.924274,39.04 C214.484277,36.0533184 215.044272,33.0666816 215.604274,30.08 C216.350945,26.7199832 217.330935,23.8033457 218.544274,21.33 C219.757614,18.8566543 221.624262,17.1066718 224.144274,16.08 C225.730949,15.3333296 228.390922,14.726669 232.124274,14.26 C232.777611,14.26 233.780934,14.1900007 235.134274,14.05 C236.487614,13.9099993 237.490938,13.84 238.144274,13.84 C240.01095,13.84 241.877598,14.1199972 243.744274,14.68 C246.264287,15.4266704 247.990936,17.2466522 248.924274,20.14 C249.29761,21.1666718 249.624273,23.9666438 249.904274,28.54 L249.904274,28.54 Z M241.644274,30.64 C240.710936,24.1999678 238.004297,21.2599972 233.524274,21.82 C231.750932,21.82 230.397612,23.0799874 229.464274,25.6 L227.644274,30.22 C224.84426,36.286697 223.444274,42.3066368 223.444274,48.28 C223.444274,50.8933464 223.537607,52.9933254 223.724274,54.58 L224.284274,59.34 L238.004274,60.04 C239.217614,51.7332918 240.477601,43.380042 241.784274,34.98 L241.784274,32.32 C241.690941,31.5733296 241.644274,31.0133352 241.644274,30.64 L241.644274,30.64 Z M287.058549,83.14 C287.058549,88.273359 287.011883,91.4466606 286.918549,92.66 C286.545214,97.7000252 285.145228,102.506644 282.718549,107.08 C280.945207,110.346683 279.358556,112.913324 277.958549,114.78 C276.091873,117.206679 273.758563,119.39999 270.958549,121.36 C269.651876,119.959993 268.601886,118.186677 267.808549,116.04 C267.015211,113.893323 266.291885,111.793344 265.638549,109.74 L262.978549,102.46 C262.231878,100.033321 261.858549,97.3266816 261.858549,94.34 C261.858549,92.8466592 262.231878,91.5400056 262.978549,90.42 C265.498561,87.7133198 267.59854,85.2866774 269.278549,83.14 C269.55855,83.9800042 270.771871,87.8066326 272.918549,94.62 C273.571885,96.8600112 274.318545,98.8199916 275.158549,100.5 C275.811885,98.5399902 276.138549,96.4866774 276.138549,94.34 C276.138549,92.939993 275.975217,90.8633471 275.648549,88.11 C275.32188,85.3566529 275.158549,83.280007 275.158549,81.88 C275.158549,77.5866452 275.01855,71.1000434 274.738549,62.42 C274.458547,53.7399566 274.318549,47.2533548 274.318549,42.96 C274.318549,41.8399944 274.271883,40.2300105 274.178549,38.13 C274.085215,36.0299895 274.038549,34.4200056 274.038549,33.3 C274.038549,32.7399972 273.89855,31.8533394 273.618549,30.64 C273.338547,29.4266606 273.198549,28.5400028 273.198549,27.98 C273.198549,25.2733198 274.971864,23.2666732 278.518549,21.96 C280.75856,21.2133296 283.138536,20.4200042 285.658549,19.58 L287.058549,55 L287.058549,83.14 Z M331.492823,84.12 L331.492823,85.94 C331.492823,88.273345 331.119494,91.0266508 330.372823,94.2 C329.626153,96.9066802 328.92616,99.6133198 328.272823,102.32 C327.059484,107.360025 325.799496,110.953323 324.492823,113.1 C322.346146,116.460017 319.452841,118.279999 315.812823,118.56 C314.692818,118.653334 313.012834,118.793332 310.772823,118.98 C308.626146,118.98 306.946163,118.373339 305.732823,117.16 C304.519484,115.946661 303.726158,114.313344 303.352823,112.26 C302.79282,104.699962 302.512823,101.386662 302.512823,102.32 L302.512823,94.76 C302.512823,93.1733254 302.559489,91.446676 302.652823,89.58 L308.112823,89.58 C310.446168,89.6733338 311.89282,90.1399958 312.452823,90.98 C313.012826,91.8200042 313.246157,93.406655 313.152823,95.74 C313.059489,98.540014 313.012823,99.8466676 313.012823,99.66 C313.012823,100.126669 313.106156,101.013327 313.292823,102.32 L313.292823,107.36 C313.572825,109.600011 314.412816,110.673334 315.812823,110.58 C317.959501,110.113331 319.499485,107.593356 320.432823,103.02 C320.992826,99.9399846 321.272823,95.2733646 321.272823,89.02 C320.806154,85.0066466 315.439541,79.3133702 305.172823,71.94 C300.319466,68.4866494 297.659492,64.5666886 297.192823,60.18 C297.099489,59.3399958 297.052823,58.3133394 297.052823,57.1 C297.052823,55.7933268 297.239488,54.1133436 297.612823,52.06 C297.986158,49.4466536 298.219489,47.8133366 298.312823,47.16 C298.872826,41.559972 299.80615,37.2200154 301.112823,34.14 C302.886165,30.2199804 305.77947,26.9533464 309.792823,24.34 C314.366179,21.3533184 317.539481,19.86 319.312823,19.86 C321.459501,19.86 323.676145,21.6099825 325.962823,25.11 C328.249501,28.6100175 329.626154,31.759986 330.092823,34.56 L330.092823,49.54 C327.292809,50.006669 323.139517,50.6133296 317.632823,51.36 C319.966168,44.7333002 321.132823,38.9933576 321.132823,34.14 L321.132823,32.18 C321.132823,31.3399958 321.039491,29.6133464 320.852823,27 C320.759489,26.533331 320.572825,26.3 320.292823,26.3 C317.959478,26.766669 315.812833,28.7733156 313.852823,32.32 C311.052809,37.453359 309.652823,41.5133184 309.652823,44.5 C309.652823,45.3400042 309.699489,45.993331 309.792823,46.46 C310.259492,51.7800266 313.806123,57.706634 320.432823,64.24 C327.806193,71.6133702 331.492823,78.2399706 331.492823,84.12 L331.492823,84.12 Z" id="purplejs" fill="#773F9B"></path>
    </g>
</svg>