<?xml version="1.0" encoding="UTF-8" standalone="no"?>
<svg width="150px" height="150px" viewBox="0 0 150 150" version="1.1" xmlns="http://www.w3.org/2000/svg" xmlns:xlink="http://www.w3.org/1999/xlink">
    <!-- Generator: Sketch 3.8.3 (29802) - http://www.bohemiancoding.com/sketch -->
    <title>Artboard 4</title>
    <desc>Created with Sketch.</desc>
    <defs></defs>
    <g id="Page-1" stroke="none" stroke-width="1" fill="none" fill-rule="evenodd">
        <g id="Artboard-4" fill="#773F9B">
            <path d="M63.262538,119.137207 L87.262538,119.137207 L87.262538,126.137207 L63.262538,126.137207 L63.262538,119.137207 Z M52.0457413,86.7270508 C55.2205458,95.2968753 61.8232042,111.970946 59.939296,112.70996 C52.7820694,115.517577 50.7210341,124.117675 46.8938854,123.407714 C43.0667368,122.697753 40.0167883,114.270023 41.2962294,104.317871 C42.5756704,94.3657182 51.0886415,84.1435288 52.0457413,86.7270508 Z M97.4793346,87.5427016 C94.3045302,96.1125261 87.7018717,112.786597 89.58578,113.525611 C96.7430065,116.333228 98.8040419,124.933326 102.631191,124.223365 C106.458339,123.513404 109.508288,115.085674 108.228847,105.133521 C106.949406,95.181369 98.4364344,84.9591796 97.4793346,87.5427016 Z M54.3958388,66.4799805 C54.3958388,44.8188477 66.5134582,23 74.9079717,23 C82.8016286,23 95.7161513,45.4243164 95.7161513,66.4799805 C95.7161513,87.5356445 83.2420304,115.137207 83.2420304,115.137207 L66.488124,115.137207 C66.488124,115.137207 54.3958388,88.1411133 54.3958388,66.4799805 Z M68.8157607,45.9775391 C70.5779674,50.6430664 66.0076555,51.4160174 66.7928116,67.1489267 C66.954218,70.3831765 63.0813856,70.4926777 61.9246474,68.8574228 C54.0869193,57.7774019 64.9863165,35.8389008 68.8157607,45.9775391 Z M72.762538,39.137207 C76.262538,39.137207 77.0901747,37.346346 77.0901747,35.137207 C77.0901747,32.928068 76.262538,31.137207 72.762538,31.137207 C69.262538,31.137207 68.825038,32.928068 68.825038,35.137207 C68.825038,37.346346 69.262538,39.137207 72.762538,39.137207 Z" id="Combined-Shape"></path>
        </g>
    </g>
</svg>